<svg width="30" height="30" viewBox="0 0 24 24" fill="none" xmlns="http://www.w3.org/2000/svg">
<path d="M12 5.99121C8.67482 5.99121 5.99123 8.67481 5.99123 12C5.99123 15.3252 8.67482 18.0088 12 18.0088C15.3252 18.0088 18.0088 15.3252 18.0088 12C18.0088 8.67481 15.3252 5.99121 12 5.99121ZM12 15.9053C9.84963 15.9053 8.09474 14.1504 8.09474 12C8.09474 9.84961 9.84963 8.09473 12 8.09473C14.1504 8.09473 15.9053 9.84961 15.9053 12C15.9053 14.1504 14.1504 15.9053 12 15.9053ZM18.2549 4.34473C17.4785 4.34473 16.8516 4.97168 16.8516 5.74805C16.8516 6.52442 17.4785 7.15137 18.2549 7.15137C19.0313 7.15137 19.6582 6.52735 19.6582 5.74805C19.6585 5.5637 19.6223 5.38111 19.5519 5.21075C19.4814 5.04038 19.3781 4.88559 19.2477 4.75524C19.1174 4.62488 18.9626 4.52152 18.7922 4.45108C18.6218 4.38064 18.4393 4.3445 18.2549 4.34473ZM23.7129 12C23.7129 10.3828 23.7276 8.78028 23.6367 7.16602C23.5459 5.29102 23.1182 3.62695 21.7471 2.25586C20.3731 0.881837 18.7119 0.457033 16.8369 0.366213C15.2197 0.275392 13.6172 0.290041 12.0029 0.290041C10.3858 0.290041 8.78322 0.275392 7.16896 0.366213C5.29396 0.457033 3.6299 0.884767 2.25881 2.25586C0.884783 3.62988 0.459978 5.29102 0.369158 7.16602C0.278337 8.78321 0.292986 10.3857 0.292986 12C0.292986 13.6143 0.278337 15.2197 0.369158 16.834C0.459978 18.709 0.887712 20.373 2.25881 21.7441C3.63283 23.1182 5.29396 23.543 7.16896 23.6338C8.78615 23.7246 10.3887 23.71 12.0029 23.71C13.6201 23.71 15.2227 23.7246 16.8369 23.6338C18.7119 23.543 20.376 23.1152 21.7471 21.7441C23.1211 20.3701 23.5459 18.709 23.6367 16.834C23.7305 15.2197 23.7129 13.6172 23.7129 12ZM21.1348 18.9082C20.9209 19.4414 20.6631 19.8398 20.25 20.25C19.8369 20.6631 19.4414 20.9209 18.9082 21.1348C17.3672 21.7471 13.708 21.6094 12 21.6094C10.292 21.6094 6.6299 21.7471 5.08888 21.1377C4.55568 20.9238 4.15724 20.666 3.74709 20.2529C3.334 19.8398 3.07619 19.4443 2.86232 18.9111C2.25295 17.3672 2.39064 13.708 2.39064 12C2.39064 10.292 2.25295 6.62988 2.86232 5.08887C3.07619 4.55567 3.334 4.15723 3.74709 3.74707C4.16017 3.33692 4.55568 3.07617 5.08888 2.86231C6.6299 2.25293 10.292 2.39063 12 2.39063C13.708 2.39063 17.3701 2.25293 18.9112 2.86231C19.4444 3.07617 19.8428 3.33399 20.2529 3.74707C20.666 4.16016 20.9238 4.55567 21.1377 5.08887C21.7471 6.62988 21.6094 10.292 21.6094 12C21.6094 13.708 21.7471 17.3672 21.1348 18.9082Z" fill="#F8F8F8" fill-opacity="0.8"/>
</svg>
