<svg width="30" height="30" viewBox="0 0 29 24" fill="none" xmlns="http://www.w3.org/2000/svg">
<path d="M28.5538 3.17125C27.51 3.63375 26.3888 3.94625 25.21 4.0875C26.4263 3.35975 27.3362 2.21434 27.77 0.865005C26.6273 1.54374 25.3767 2.0215 24.0725 2.2775C23.1955 1.34109 22.0338 0.720412 20.7679 0.511847C19.502 0.303282 18.2026 0.518494 17.0716 1.12407C15.9405 1.72965 15.041 2.69171 14.5127 3.86088C13.9844 5.03006 13.8569 6.34094 14.15 7.59C11.8346 7.47375 9.56955 6.87194 7.50179 5.82364C5.43404 4.77533 3.60982 3.30396 2.14751 1.505C1.64751 2.3675 1.36001 3.3675 1.36001 4.4325C1.35946 5.39125 1.59556 6.33531 2.04736 7.18092C2.49917 8.02653 3.15272 8.74755 3.95001 9.28C3.02536 9.25058 2.12111 9.00073 1.31251 8.55125V8.62625C1.31242 9.97093 1.77756 11.2742 2.62899 12.315C3.48043 13.3558 4.66573 14.0699 5.98376 14.3363C5.12599 14.5684 4.22669 14.6026 3.35376 14.4363C3.72564 15.5933 4.45001 16.605 5.42547 17.3299C6.40094 18.0548 7.57866 18.4565 8.79377 18.4788C6.73106 20.098 4.18362 20.9764 1.56126 20.9725C1.09674 20.9726 0.63261 20.9455 0.171265 20.8913C2.83311 22.6027 5.93169 23.511 9.09626 23.5075C19.8088 23.5075 25.665 14.635 25.665 6.94C25.665 6.69 25.6588 6.4375 25.6475 6.1875C26.7866 5.36372 27.7699 4.34362 28.5513 3.175L28.5538 3.17125Z" fill="#F8F8F8" fill-opacity="0.8"/>
</svg>
